# xmcd CD database file
#
# Track frame offsets:
#	150
#	22177
#	41160
#	59812
#	82908
#	98049
#	115350
#	152549
#	174889
#	193297
#	208114
#	229382
#	245638
#	268292
#
# Disc length: 3788 seconds
#
# Revision: 0
# Processed by: cddbd v1.5.2PL0 Copyright (c) Steve Scherf et al.
# Submitted via: CDex 1.70beta2
#
DISCID=ce0eca0e
DTITLE=Chet and The Comittee - For Love or Money
DYEAR=2014
DGENRE=Blues
TTITLE0=Country Girl
TTITLE1=Howlin' For My Darlin'
TTITLE2=Cold Folks Boogie
TTITLE3=Ashes to Ashes
TTITLE4=Don't Know Jack
TTITLE5=Certainly All
TTITLE6=Headed South
TTITLE7=Working for Gas
TTITLE8=Flip Flop and Fly
TTITLE9=Perfect Woman
TTITLE10=Close to You
TTITLE11=The Crawl
TTITLE12=Yakkety Yak
TTITLE13=Has a Real Good Time
EXTD=YEAR: 2014
EXTT0=
EXTT1=
EXTT2=
EXTT3=
EXTT4=
EXTT5=
EXTT6=
EXTT7=
EXTT8=
EXTT9=
EXTT10=
EXTT11=
EXTT12=
EXTT13=
PLAYORDER=
